<?xml version="1.0" encoding="utf-8"?>
<!-- Generator: Adobe Illustrator 24.3.0, SVG Export Plug-In . SVG Version: 6.00 Build 0)  -->
<svg version="1.1" id="Layer_1" xmlns="http://www.w3.org/2000/svg" xmlns:xlink="http://www.w3.org/1999/xlink" x="0px" y="0px"
	 viewBox="0 0 590 32" style="enable-background:new 0 0 590 32;" width="590px" height="32px" xml:space="preserve">
<style type="text/css">
	.st0{opacity:0.82;fill-rule:evenodd;clip-rule:evenodd;fill:#95CBDE;}
</style>
<path class="st0" d="M6.1,4.5c-0.9,0-2.3,0.3-3,0.5c-1.1,0.4-1.1,0.5,0,1.7c0.6,0.7,1.4,1.9,1.7,2.8c0.5,1.8,1.2,2.2,3.6,2.5
	c1.4,0.2,21.9,0.2,104.1,0.3c103.3,0.1,197.1,0.3,195.7,0.4c-0.4,0-13.2,0.4-28.4,0.8c-32.5,0.9-74.3,2.3-92,3
	c-28.2,1.2-67.3,2.9-70.6,3.2c-1.9,0.2-11.1,0.7-20.5,1.2c-9.3,0.5-18.4,1.1-20,1.3c-4.5,0.5-4.7,1-0.9,2.7c1.7,0.7,3.7,1.7,4.4,2.2
	c0.8,0.5,2.1,1.2,3,1.6l1.7,0.8l4.7,0.1c2.6,0,9.7-0.1,16-0.2c39.4-0.9,82.1-1.4,125.7-1.2c41.9,0.1,61.3,0.3,89.9,0.9
	c39.4,0.8,48.9,0.9,50.2,0.6c2.2-0.5,4.1-4.1,3.6-6.6c-0.1-0.2-1.5-0.5-3.2-0.7c-2.9-0.4-4.5-0.5-22.7-0.8
	c-22.5-0.4-35-0.7-35.4-0.8c-0.5-0.1,3.6-0.2,57.7-1.6c90.8-2.3,108.9-2.8,157.2-4.4c16.7-0.6,35.4-1.2,41.6-1.3
	c10.6-0.3,11.4-0.3,13.8-0.8c2.5-0.5,2.6-0.6,3.5-2.4c0.5-1.1,0.9-2.4,0.9-3c0-1-0.2-1.2-1.9-1.6c-3.7-0.9-5.3-1-21.9-1.1
	c-8.6-0.1-57.6-0.1-109,0c-96.6,0.1-134.9,0.1-331.6-0.1C60.1,4.4,7.2,4.4,6.1,4.5L6.1,4.5z"/>
</svg>
