<?xml version="1.0" encoding="iso-8859-1"?>
<!-- Generator: Adobe Illustrator 24.3.0, SVG Export Plug-In . SVG Version: 6.00 Build 0)  -->
<svg version="1.1" id="Layer_2" xmlns="http://www.w3.org/2000/svg" xmlns:xlink="http://www.w3.org/1999/xlink" x="0px" y="0px"
	 viewBox="0 0 1080 1080" enable-background="new 0 0 1080 1080" width="1080px" height="1080px" xml:space="preserve">
<g>
	<g>
		<polygon fill="#3B3B4C" points="843.581,169.52 839.876,169.394 840.387,151.402 844.092,151.528 		"/>
		<path fill="#F4AD00" d="M832.782,150.342l0.025-0.877c0.059-2.07,1.71-3.693,3.688-3.625l11.799,0.404
			c1.978,0.068,3.534,1.8,3.475,3.87l-0.025,0.877c-0.059,2.07-1.71,3.693-3.688,3.625l-11.799-0.404
			C834.279,154.145,832.723,152.412,832.782,150.342z"/>
	</g>
	<path fill="#F4AD00" d="M896.615,151.218c7.396-7.515,14.227-2.793,6.92,6.25C896.229,166.511,896.615,151.218,896.615,151.218z"/>
	<path fill="#F4AD00" d="M792.582,155.266c-6.351-8.537-1.14-15.113,6.672-6.497C807.066,157.385,792.582,155.266,792.582,155.266z"
		/>
	
		<path fill="none" stroke="#423B30" stroke-width="8.7158" stroke-linecap="round" stroke-linejoin="round" stroke-miterlimit="10" d="
		M791.592,153.876c17.511-8.699,23.873-21.399,33.496-30.718c8.32-8.057,40.063-9.446,51.166,3.387
		c7.734,8.94,11.277,19.868,24.669,28.221c7.395,4.613,1.993,2.243,1.993,2.243"/>
	<g>
		<path fill="#084259" d="M828.594,154.94c1.739,7.109-8.254,19.417-15.002,22.958c-6.749,3.54-24.576,13.908-28.696,3.393
			c-2.615-6.674,12.566-20.816,26.184-26.289C816.652,152.763,828.594,154.94,828.594,154.94z"/>
		<path fill="#0771A5" d="M828.515,154.945c-3.721-0.525-7.294-0.147-10.566,0.69c-5.086,1.3-9.439,3.707-12.469,5.578
			c-1.191,0.726-2.174,1.375-2.916,1.842c-4.725,2.943-13.24,9.042-17.666,18.237c-1.635-3.653-2.893-18.603,7.955-26.817
			c0.345-0.266,0.71-0.526,1.084-0.773c0.662-0.44,1.34-0.847,2.048-1.222c0.014-0.001,0.02-0.008,0.027-0.009
			c0.006-0.007,0.013-0.015,0.02-0.015C807.825,146.206,825.579,151.167,828.515,154.945z"/>
		<path opacity="0.18" fill="#FFFFFF" d="M817.949,155.635c-5.086,1.3-9.439,3.707-12.469,5.578
			c-2.039-3.733-8.314-4.84-12.34-6.525c-0.085-0.028-0.207-0.147-0.285-0.183c0.679-0.586,1.391-1.074,2.119-1.56
			c0.19-0.028,0.717-0.348,1.01-0.466c0.014-0.001,0.02-0.008,0.027-0.009c0.04-0.017,0.081-0.026,0.108-0.028
			C814.877,149.998,815.392,152.716,817.949,155.635z"/>
	</g>
	<path fill="#0771A5" d="M839.933,164.686c12.929,0.234,71.131,9.397,68.417,64.102c-2.329,46.946-39.68,58.999-68.285,59.929
		C831.769,288.987,839.933,164.686,839.933,164.686z"/>
	<path opacity="0.1" fill="#323240" d="M839.933,164.686c12.929,0.234,71.131,9.397,68.417,64.102
		c-2.329,46.946-39.68,58.999-68.285,59.929"/>
	<path fill="#3B3B4C" d="M815.403,275.364c-20.342,26.457-22.211,19.71-16.134,6.08
		C805.346,267.814,815.403,275.364,815.403,275.364z"/>
	<path fill="#3B3B4C" d="M872.692,281.405c1.086,1.786,10.177,13.21,14.145,12.885c2.895-0.237-1.164-9.894-5.77-17.986
		C879.203,273.026,871.607,279.619,872.692,281.405z"/>
	<path fill="#1991BF" d="M887.037,262.127c-0.139,0.216-0.28,0.43-0.42,0.642c-9.917,14.983-25.947,25.143-44.463,26.18
		c-32.103,1.799-59.528-24.497-61.256-58.734c-1.728-34.236,22.896-63.448,54.998-65.246c27.979-1.566,52.405,18.205,59.36,45.976
		c0.112,0.445,0.219,0.893,0.321,1.342c0.842,3.681,1.375,7.497,1.574,11.417C897.868,237.91,894.047,251.251,887.037,262.127z"/>
	
		<ellipse transform="matrix(0.9999 -0.01 0.01 0.9999 -2.2281 8.4034)" fill="#FFFFFF" cx="839.024" cy="226.958" rx="49.337" ry="52.614"/>
	<path fill="#0771A5" d="M888.291,224.198c1.464,29.019-19.406,53.778-46.616,55.302c-0.85,0.048-1.698,0.072-2.539,0.074
		c26.655-2.16,46.886-27.588,45.382-57.378c-0.739-14.642-6.59-27.646-15.524-36.99
		C880.058,194.251,887.484,208.202,888.291,224.198z"/>
	<g>
		<path fill="#5E5E6B" d="M836.09,186.615l-0.332,0.019c-0.844,0.047-1.566-0.644-1.611-1.545l-0.232-4.6
			c-0.045-0.901,0.602-1.669,1.447-1.716l0.332-0.019c0.844-0.047,1.566,0.644,1.611,1.545l0.232,4.6
			C837.582,185.799,836.934,186.567,836.09,186.615z"/>
		<path fill="#5E5E6B" d="M840.564,275.264l-0.332,0.019c-0.844,0.047-1.566-0.644-1.611-1.545l-0.232-4.6
			c-0.045-0.901,0.602-1.669,1.447-1.716l0.332-0.019c0.844-0.047,1.566,0.644,1.611,1.545l0.232,4.6
			C842.056,274.448,841.408,275.216,840.564,275.264z"/>
		<path fill="#5E5E6B" d="M875.892,225.006l-0.018-0.354c-0.045-0.901,0.602-1.669,1.447-1.716l4.313-0.242
			c0.844-0.047,1.566,0.644,1.611,1.545l0.018,0.354c0.045,0.901-0.602,1.669-1.447,1.716l-4.313,0.242
			C876.659,226.598,875.938,225.907,875.892,225.006z"/>
		<path fill="#5E5E6B" d="M792.029,227.892l-0.018-0.354c-0.045-0.901,0.602-1.669,1.447-1.716l4.313-0.242
			c0.844-0.047,1.566,0.644,1.611,1.545l0.018,0.354c0.045,0.901-0.602,1.669-1.447,1.716l-4.313,0.242
			C792.796,229.484,792.075,228.792,792.029,227.892z"/>
		<g>
			<path fill="#5E5E6B" d="M812.538,186.179l0.279-0.193c0.709-0.491,1.657-0.276,2.119,0.48l2.358,3.863
				c0.462,0.756,0.261,1.768-0.447,2.259l-0.279,0.193c-0.708,0.491-1.657,0.276-2.119-0.48l-2.358-3.863
				C811.63,187.682,811.83,186.67,812.538,186.179z"/>
			<path fill="#5E5E6B" d="M796.696,204.218l0.165-0.308c0.419-0.783,1.354-1.055,2.088-0.607l3.753,2.286
				c0.735,0.448,0.991,1.445,0.572,2.228l-0.165,0.308c-0.419,0.783-1.354,1.055-2.088,0.607l-3.753-2.286
				C796.533,205.998,796.277,205.001,796.696,204.218z"/>
		</g>
		<g>
			<path fill="#5E5E6B" d="M858.868,184.631l-0.297-0.161c-0.754-0.409-1.676-0.09-2.058,0.714l-1.956,4.104
				c-0.383,0.804-0.082,1.787,0.672,2.196l0.296,0.161c0.754,0.409,1.676,0.09,2.058-0.714l1.956-4.104
				C859.923,186.023,859.622,185.04,858.868,184.631z"/>
			<path fill="#5E5E6B" d="M876.437,200.797l-0.195-0.288c-0.495-0.732-1.452-0.898-2.138-0.371l-3.502,2.692
				c-0.685,0.527-0.84,1.548-0.345,2.279l0.195,0.288c0.495,0.732,1.452,0.898,2.138,0.371l3.501-2.692
				C876.777,202.55,876.932,201.529,876.437,200.797z"/>
		</g>
		<g>
			<path fill="#5E5E6B" d="M862.199,267.797l-0.279,0.193c-0.709,0.491-1.657,0.276-2.119-0.48l-2.358-3.863
				c-0.462-0.756-0.261-1.768,0.447-2.259l0.279-0.193c0.709-0.491,1.657-0.276,2.119,0.48l2.358,3.863
				C863.108,266.294,862.908,267.305,862.199,267.797z"/>
			<path fill="#5E5E6B" d="M878.042,249.758l-0.165,0.308c-0.419,0.783-1.354,1.055-2.088,0.607l-3.753-2.286
				c-0.735-0.448-0.991-1.445-0.572-2.228l0.165-0.308c0.419-0.783,1.354-1.055,2.088-0.607l3.753,2.286
				C878.204,247.978,878.461,248.975,878.042,249.758z"/>
		</g>
		<path fill="#5E5E6B" d="M814.474,269.344l0.296,0.161c0.754,0.409,1.676,0.09,2.058-0.714l1.956-4.104
			c0.383-0.804,0.082-1.787-0.672-2.196l-0.296-0.161c-0.754-0.409-1.676-0.09-2.058,0.714l-1.956,4.104
			C813.419,267.951,813.72,268.935,814.474,269.344z"/>
		<path fill="#5E5E6B" d="M798.535,252.252l0.195,0.288c0.495,0.732,1.452,0.898,2.138,0.371l3.501-2.692
			c0.686-0.527,0.84-1.548,0.345-2.279l-0.195-0.288c-0.495-0.732-1.452-0.898-2.138-0.371l-3.501,2.692
			C798.194,250.5,798.04,251.52,798.535,252.252z"/>
	</g>
	<path opacity="0.24" fill="#FFFFFF" d="M788.528,237.678c3.356,15.587,6.514,20.026,14.967,29.288
		c12.179,13.345,28.237,13.737,28.309,15.494c0.122,2.998-19.146-1.922-30.057-14.111c-12.104-13.522-12.675-18.783-15.572-30.364
		C784.548,231.478,788.528,237.678,788.528,237.678z"/>
	<path fill="#3B3B4C" d="M839.978,226.172c1.136,7.667,2.994,16.356,3.217,20.195c0.121,2.087-1.803,8.159-2.813,8.128
		c-0.938-0.028-4.079-4.946-4.372-7.373c-0.332-2.757-0.239-20.509,0.539-21.196C837.328,225.239,839.978,226.172,839.978,226.172z"
		/>
	<path fill="#3B3B4C" d="M840.541,229.362c-0.582,0.531-1.454,0.489-2.03-0.05c-9.138-8.537-21.494-18.486-25.488-22.471
		c-2.183-2.179-5.998-9.178-5.121-10.357c0.47-0.632,7.956,2.326,10.204,4.65c1.694,1.752,22.433,25.815,22.772,27.147
		C840.998,228.756,840.82,229.107,840.541,229.362z"/>
	
		<ellipse transform="matrix(0.9999 -0.01 0.01 0.9999 -2.2372 8.422)" fill="#3B3B4C" cx="838.281" cy="227.183" rx="5.803" ry="6.189"/>
	<path fill="#0771A5" d="M906.973,189.603c-0.659,0.727-1.848,0.73-3.417,0.18c-2.788-0.981-6.77-3.719-11.078-7.303
		c-12.533-10.423-27.826-27.983-24.498-30.088c2.094-1.321,6.988-3.262,12.815-3.731c1.552-0.125,3.169-0.146,4.818-0.02
		c0.003,0,0.003,0,0.003,0c2.415,0.181,4.895,0.672,7.329,1.596c0.98,0.371,1.952,0.81,2.91,1.336
		c1.088,0.586,2.154,1.28,3.194,2.082c0.414,0.321,0.822,0.657,1.226,1.014C911.804,164.847,911.065,185.129,906.973,189.603z"/>
	<path opacity="0.18" fill="#FFFFFF" d="M903.556,189.783c-2.788-0.981-6.77-3.719-11.078-7.303
		c2.069-5.499,1.252-15.874-11.683-33.819c1.552-0.125,3.169-0.146,4.818-0.02c0.003,0,0.003,0,0.003,0
		C903.814,161.656,904.632,184.269,903.556,189.783z"/>
</g>
<path fill="#DBDBDB" d="M752.441,608.884c-4.65,0.188,3.876,19.335,8.495,18.372c12.174-2.538,202.645-31.912,224.104-44.768
	c8.338-4.995,6.654-27.441,1.323-24.896C981.031,560.136,798.275,607.032,752.441,608.884z"/>
<g>
	<path fill="#EFEFEF" d="M986.18,541.27c4.325-1.719,4.139,16.719-0.472,17.716c-12.154,2.63-213.059,54.156-238.014,52.423
		c-5.256-0.365-13.285-23.726-7.379-23.568S943.55,558.209,986.18,541.27z"/>
	
		<path fill="none" stroke="#C1C1C1" stroke-width="1.3532" stroke-linecap="round" stroke-linejoin="round" stroke-miterlimit="10" d="
		M979.072,550.927c-19.409,4.684-172.678,48.48-223.435,50.773"/>
	
		<path fill="none" stroke="#C1C1C1" stroke-width="1.3532" stroke-linecap="round" stroke-linejoin="round" stroke-miterlimit="10" d="
		M972.035,549.73c-3.649,0.927-170.626,46.454-201.224,48.108"/>
	
		<path fill="none" stroke="#C1C1C1" stroke-width="1.3532" stroke-linecap="round" stroke-linejoin="round" stroke-miterlimit="10" d="
		M968.458,552.401c0,0-170.99,47.052-203.194,47.413"/>
	
		<path fill="none" stroke="#C1C1C1" stroke-width="1.3532" stroke-linecap="round" stroke-linejoin="round" stroke-miterlimit="10" d="
		M991.134,567.25c-19.41,4.684-172.678,48.48-223.435,50.773"/>
	
		<path fill="none" stroke="#C1C1C1" stroke-width="1.3532" stroke-linecap="round" stroke-linejoin="round" stroke-miterlimit="10" d="
		M984.097,566.052c-3.649,0.927-170.626,46.454-201.225,48.108"/>
	
		<path fill="none" stroke="#C1C1C1" stroke-width="1.3532" stroke-linecap="round" stroke-linejoin="round" stroke-miterlimit="10" d="
		M980.52,568.724c0,0-170.99,47.052-203.194,47.413"/>
</g>
<g>
	<path fill="#FFFFFF" d="M742.484,565.237c0,0,0.137,21.044,5.547,21.509c12.206,1.048,240.563-40.224,246.603-44.355
		c6.04-4.132-7.033-19.895-7.033-19.895S772.128,568.669,742.484,565.237z"/>
	
		<path fill="none" stroke="#E5E5E5" stroke-width="1.3532" stroke-linecap="round" stroke-linejoin="round" stroke-miterlimit="10" d="
		M986.999,536.107c-6.104,2.581-210.596,42.09-231.925,42.584"/>
	
		<path fill="none" stroke="#E5E5E5" stroke-width="1.3532" stroke-linecap="round" stroke-linejoin="round" stroke-miterlimit="10" d="
		M983.845,530.221c-3.06,1.097-135.969,31.888-173.648,35.969"/>
	
		<path fill="none" stroke="#E5E5E5" stroke-width="1.3532" stroke-linecap="round" stroke-linejoin="round" stroke-miterlimit="10" d="
		M963.508,531.256c-5.167,1.766-174.814,39.058-203.498,40.05"/>
</g>
<g>
	<path fill="#E5E5E5" d="M978.405,506.344c4.402-1.511,8.124,17.267,3.47,18.044c-12.265,2.049-217.432,51.342-240.236,41.058
		c-4.861-2.192-12.085-24.578-6.251-23.892C741.255,542.244,935.019,521.239,978.405,506.344z"/>
	
		<path fill="none" stroke="#C1C1C1" stroke-width="1.3532" stroke-linecap="round" stroke-linejoin="round" stroke-miterlimit="10" d="
		M955.82,520.684c-19.61,3.757-154.976,35.562-205.785,35.441"/>
	
		<path fill="none" stroke="#C1C1C1" stroke-width="1.3532" stroke-linecap="round" stroke-linejoin="round" stroke-miterlimit="10" d="
		M968.658,514.493c-3.689,0.753-178.369,34.254-209.011,34.451"/>
	
		<path fill="none" stroke="#C1C1C1" stroke-width="1.3532" stroke-linecap="round" stroke-linejoin="round" stroke-miterlimit="10" d="
		M964.958,516.991c0,0-175.462,34.66-207.647,33.49"/>
</g>
<g>
	<path fill="#DFE6ED" d="M976.824,490.114c4.442-1.388,7.64,17.486,2.966,18.134c-12.318,1.708-216.531,37.966-241.285,34.359
		c-5.213-0.76-11.461-24.658-5.584-24.057C738.798,519.152,933.041,503.797,976.824,490.114z"/>
	
		<path fill="none" stroke="#C1C1C1" stroke-width="1.3532" stroke-linecap="round" stroke-linejoin="round" stroke-miterlimit="10" d="
		M953.849,503.82c-19.707,3.21-155.905,31.237-206.691,29.703"/>
	
		<path fill="none" stroke="#C1C1C1" stroke-width="1.3532" stroke-linecap="round" stroke-linejoin="round" stroke-miterlimit="10" d="
		M966.854,497.989c-3.709,0.65-179.253,29.278-209.888,28.624"/>
	
		<path fill="none" stroke="#C1C1C1" stroke-width="1.3532" stroke-linecap="round" stroke-linejoin="round" stroke-miterlimit="10" d="
		M963.086,500.383c0,0-176.359,29.765-208.498,27.701"/>
</g>
<g>
	<path fill="#FFFFFF" d="M982.982,472.24c4.471-1.294,7.201,17.221,2.583,18.192c-18.977,3.994-217.283,33.391-241.956,29.263
		c-5.196-0.869-10.939-24.894-5.076-24.169C744.397,496.252,938.92,484.996,982.982,472.24z"/>
	
		<path fill="none" stroke="#E5E5E5" stroke-width="1.3532" stroke-linecap="round" stroke-linejoin="round" stroke-miterlimit="10" d="
		M959.724,485.458c-19.77,2.794-156.529,27.943-207.271,25.338"/>
	
		<path fill="none" stroke="#E5E5E5" stroke-width="1.3532" stroke-linecap="round" stroke-linejoin="round" stroke-miterlimit="10" d="
		M972.849,479.903c-3.722,0.572-179.83,25.492-210.445,24.191"/>
	
		<path fill="none" stroke="#E5E5E5" stroke-width="1.3532" stroke-linecap="round" stroke-linejoin="round" stroke-miterlimit="10" d="
		M969.031,482.217c0,0-176.947,26.039-209.036,23.298"/>
</g>
<g>
	<g>
		<path fill="#FFFFFF" d="M736.246,450.076c0,0-2.2,19.993,2.833,22.031c11.984,4.852,225.303-6.171,242.357-15.802
			c6.372-3.598,3.337-18.2,3.337-18.2S765.234,457.163,736.246,450.076z"/>
		
			<path fill="none" stroke="#E5E5E5" stroke-width="1.3532" stroke-linecap="round" stroke-linejoin="round" stroke-miterlimit="10" d="
			M982.485,451.536c-6.378,1.803-214.192,15.612-235.418,13.453"/>
		
			<path fill="none" stroke="#E5E5E5" stroke-width="1.3532" stroke-linecap="round" stroke-linejoin="round" stroke-miterlimit="10" d="
			M980.086,445.304c-3.173,0.708-138.876,14.756-176.77,14.126"/>
		
			<path fill="none" stroke="#E5E5E5" stroke-width="1.3532" stroke-linecap="round" stroke-linejoin="round" stroke-miterlimit="10" d="
			M959.778,443.805c-5.347,1.111-178.311,17.047-206.897,14.469"/>
	</g>
	<g>
		<path fill="#DBDBDB" d="M981.031,456.557c4.505-1.168,1.92,16.421-2.669,17.521c-17.049,4.088-218.135,27.279-242.682,22.46
			c-5.169-1.015-10.236-25.192-4.395-24.302C737.125,473.125,936.628,468.072,981.031,456.557z"/>
		
			<path fill="none" stroke="#C1C1C1" stroke-width="1.3532" stroke-linecap="round" stroke-linejoin="round" stroke-miterlimit="10" d="
			M972.779,465.257c-19.841,2.238-177.362,26.661-228.01,22.633"/>
		
			<path fill="none" stroke="#C1C1C1" stroke-width="1.3532" stroke-linecap="round" stroke-linejoin="round" stroke-miterlimit="10" d="
			M965.945,463.195c-3.736,0.467-175.074,24.906-205.641,22.746"/>
		
			<path fill="none" stroke="#C1C1C1" stroke-width="1.3532" stroke-linecap="round" stroke-linejoin="round" stroke-miterlimit="10" d="
			M962.064,465.402c0,0-175.509,25.453-207.509,21.812"/>
	</g>
	<g>
		<path fill="#E5E5E5" d="M977.654,420.936c4.556-0.953,5.916,18.142,1.202,18.336c-12.425,0.51-219.184,16.886-243.475,10.907
			c-5.115-1.259-9.027-25.649-3.236-24.483C737.936,426.861,932.754,430.328,977.654,420.936z"/>
		
			<path fill="none" stroke="#C1C1C1" stroke-width="1.3532" stroke-linecap="round" stroke-linejoin="round" stroke-miterlimit="10" d="
			M953.463,432.36c-19.925,1.293-158.193,16.041-208.593,9.612"/>
		
			<path fill="none" stroke="#C1C1C1" stroke-width="1.3532" stroke-linecap="round" stroke-linejoin="round" stroke-miterlimit="10" d="
			M966.97,427.812c-3.754,0.289-181.242,11.838-211.671,8.229"/>
		
			<path fill="none" stroke="#C1C1C1" stroke-width="1.3532" stroke-linecap="round" stroke-linejoin="round" stroke-miterlimit="10" d="
			M962.988,429.831c0,0-178.408,12.602-210.199,7.445"/>
	</g>
	<g>
		<path fill="#DFE6ED" d="M977.534,404.035c4.58-0.826,5.329,17.492,0.691,18.362c-19.261,3.611-219.569,10.782-243.684,4.129
			c-5.078-1.401-8.31-25.891-2.554-24.564C737.745,403.289,932.391,412.175,977.534,404.035z"/>
		
			<path fill="none" stroke="#C1C1C1" stroke-width="1.3532" stroke-linecap="round" stroke-linejoin="round" stroke-miterlimit="10" d="
			M953.601,415.383c-19.953,0.738-158.578,11.635-208.78,3.805"/>
		
			<path fill="none" stroke="#E5E5E5" stroke-width="1.3532" stroke-linecap="round" stroke-linejoin="round" stroke-miterlimit="10" d="
			M967.23,411.212c-3.761,0.184-181.501,6.792-211.818,2.338"/>
		
			<path fill="none" stroke="#C1C1C1" stroke-width="1.3532" stroke-linecap="round" stroke-linejoin="round" stroke-miterlimit="10" d="
			M963.193,413.119c0,0-178.69,7.634-210.325,1.594"/>
	</g>
	<g>
		<path fill="#FFFFFF" d="M986.431,387.665c4.597-0.729,5.022,18.41,0.304,18.372c-12.435-0.098-219.748,6.15-243.717-1.01
			c-5.048-1.508-7.763-26.06-2.035-24.612C746.71,381.862,941.125,394.85,986.431,387.665z"/>
		
			<path fill="none" stroke="#E5E5E5" stroke-width="1.3532" stroke-linecap="round" stroke-linejoin="round" stroke-miterlimit="10" d="
			M961.71,397.893c-19.964,0.317-158.788,8.288-208.813-0.598"/>
		
			<path fill="none" stroke="#E5E5E5" stroke-width="1.3532" stroke-linecap="round" stroke-linejoin="round" stroke-miterlimit="10" d="
			M975.424,394.01c-3.764,0.105-181.604,2.963-211.82-2.13"/>
		
			<path fill="none" stroke="#E5E5E5" stroke-width="1.3532" stroke-linecap="round" stroke-linejoin="round" stroke-miterlimit="10" d="
			M971.348,395.832c0,0-178.811,3.864-210.311-2.841"/>
	</g>
</g>
<g>
	<g>
		<path fill="#DFE6ED" d="M974.283,339.908c0,0,4.26,20.782-0.984,22.191c-16.6,4.461-219.989,14.152-244.868,4.721
			c-6.843-2.594-2.807-18.093-2.807-18.093S945.988,349.391,974.283,339.908z"/>
		
			<path fill="none" stroke="#C1C1C1" stroke-width="1.3532" stroke-linecap="round" stroke-linejoin="round" stroke-miterlimit="10" d="
			M729.025,361.92c6.506,1.265,214.748-2.324,235.719-6.248"/>
		
			<path fill="none" stroke="#C1C1C1" stroke-width="1.3532" stroke-linecap="round" stroke-linejoin="round" stroke-miterlimit="10" d="
			M730.896,355.509c3.221,0.441,139.623,3.111,177.333-0.68"/>
		
			<path fill="none" stroke="#C1C1C1" stroke-width="1.3532" stroke-linecap="round" stroke-linejoin="round" stroke-miterlimit="10" d="
			M751.008,352.32c5.421,0.661,179.112,2.101,207.382-2.854"/>
	</g>
	<g>
		<path fill="#FFFFFF" d="M724.418,298.804c-4.642-0.343-0.247,16.318,4.414,17.054c26.685,4.213,211.654-11.141,234.942-20.277
			c4.904-1.924,5.56-26.617-0.027-24.696C958.161,272.806,770.165,302.182,724.418,298.804z"/>
		
			<path fill="none" stroke="#E5E5E5" stroke-width="1.3532" stroke-linecap="round" stroke-linejoin="round" stroke-miterlimit="10" d="
			M745.249,306.729c19.921-1.351,158.925-4.997,208.034-18.029"/>
		
			<path fill="none" stroke="#E5E5E5" stroke-width="1.3532" stroke-linecap="round" stroke-linejoin="round" stroke-miterlimit="10" d="
			M731.26,304.005c3.759-0.21,181.217-12.209,210.903-19.806"/>
		
			<path fill="none" stroke="#E5E5E5" stroke-width="1.3532" stroke-linecap="round" stroke-linejoin="round" stroke-miterlimit="10" d="
			M735.473,305.48c0,0,178.509-11.077,209.34-20.389"/>
	</g>
	<g>
		<path fill="#EFEFEF" d="M730.894,366.802c-4.587-0.788-0.596,17.213,4.122,17.237c12.435,0.062,221.045,11.307,245.104,4.455
			c5.067-1.443,6.702-28.292,0.957-26.918C975.332,362.95,776.103,374.57,730.894,366.802z"/>
		
			<path fill="none" stroke="#E5E5E5" stroke-width="1.3532" stroke-linecap="round" stroke-linejoin="round" stroke-miterlimit="10" d="
			M739.843,374.783c19.958,0.573,178.968,11.761,229.104,3.519"/>
		
			<path fill="none" stroke="#E5E5E5" stroke-width="1.3532" stroke-linecap="round" stroke-linejoin="round" stroke-miterlimit="10" d="
			M746.481,372.158c3.762,0.153,176.543,10.203,206.822,5.499"/>
		
			<path fill="none" stroke="#E5E5E5" stroke-width="1.3532" stroke-linecap="round" stroke-linejoin="round" stroke-miterlimit="10" d="
			M750.533,374.032c0,0,177.022,10.712,208.606,4.413"/>
	</g>
	<g>
		<path fill="#E5E5E5" d="M731.285,331.023c-4.619-0.569-4.381,18.573,0.333,18.372c12.424-0.529,219.829-1.471,243.535-9.457
			c4.993-1.682,6.855-26.314,1.181-24.668C970.661,316.915,776.812,336.635,731.285,331.023z"/>
		
			<path fill="none" stroke="#C1C1C1" stroke-width="1.3532" stroke-linecap="round" stroke-linejoin="round" stroke-miterlimit="10" d="
			M756.345,340.388c19.963-0.375,158.98,2.779,208.667-7.836"/>
		
			<path fill="none" stroke="#C1C1C1" stroke-width="1.3532" stroke-linecap="round" stroke-linejoin="round" stroke-miterlimit="10" d="
			M742.506,336.983c3.765-0.026,181.597-3.334,211.619-9.471"/>
		
			<path fill="none" stroke="#C1C1C1" stroke-width="1.3532" stroke-linecap="round" stroke-linejoin="round" stroke-miterlimit="10" d="
			M746.642,338.663c0,0,178.837-2.336,210.087-10.129"/>
	</g>
	<g>
		<path fill="#DBDBDB" d="M729.479,314.817c-4.633-0.441-3.863,18.687,0.844,18.356c12.405-0.874,219.703-7.586,243.178-16.228
			c4.944-1.82,6.12-26.494,0.494-24.691C968.37,294.056,775.145,319.16,729.479,314.817z"/>
		
			<path fill="none" stroke="#C1C1C1" stroke-width="1.3532" stroke-linecap="round" stroke-linejoin="round" stroke-miterlimit="10" d="
			M754.79,323.482c19.945-0.931,158.995-1.645,208.368-13.638"/>
		
			<path fill="none" stroke="#C1C1C1" stroke-width="1.3532" stroke-linecap="round" stroke-linejoin="round" stroke-miterlimit="10" d="
			M740.861,320.463c3.763-0.13,181.434-8.384,211.274-15.354"/>
		
			<path fill="none" stroke="#C1C1C1" stroke-width="1.3532" stroke-linecap="round" stroke-linejoin="round" stroke-miterlimit="10" d="
			M745.043,322.027c0,0,178.703-7.31,209.723-15.97"/>
	</g>
</g>
<path fill="#FFFFFF" d="M780.183,425.485c3.017,7.251,4.885,24.254,9.471,22.511c4.586-1.742,73.635-21.677,68.581-21.856
	C853.181,425.961,780.183,425.485,780.183,425.485z"/>
<path fill="#FFFFFF" d="M900.284,565.456c-0.196,7.851,3.075,21.077-1.831,21.107c-4.906,0.031-77.415-3.566-72.767-5.557
	C830.334,579.015,900.284,565.456,900.284,565.456z"/>
<path fill="#FFFFFF" d="M837.974,367.974c3.196,2.197,74.753,14.766,76.143,10.827c1.39-3.939,8.288-15.482,8.288-15.482
	L837.974,367.974z"/>
<path fill="#FFFFFF" d="M959.423,498.641c1.69,2.068,10.297,13.108,9.849,19.821c-0.437,6.545-7.095,14.236-8.802,12.021
	c-13.834-17.944-75.867,0.185-84.007-1.166c-3.282-0.545-16.887-16.277-15.308-16.877
	C870.557,508.864,959.423,498.641,959.423,498.641z"/>
<path fill="#FFFFFF" d="M878.307,320.113c-0.837,1.666-20.528,11.918-31.182,17.252c-4.213,2.109-5.401,9.648-7.55,10.281
	c-4.703,1.385-72.106,0.321-74.09-0.251c-0.55-0.159,3.418-9.385,7.091-12.618c2.88-2.536,23.616-11.851,23.616-11.851
	L878.307,320.113z"/>
<path fill="#FFFFFF" d="M826.537,532.648c-6.267,8.023-18.575,20.177-27.811,22.112c-9.236,1.935-33.257-15.705-33.257-15.705
	L826.537,532.648z"/>
<g>
	<path fill="#FFFFFF" d="M938.561,1010.132c0.81-8.631,0.12-30.495,0.12-30.495l-22.901-0.761l1.333,32.827l15.167,10.393
		L938.561,1010.132z"/>
	<path fill="#1F1F39" d="M940.344,1006.497c2.421-0.48,1.332,1.769,2.08,5.424c1.711,8.367,31.859,9.758,36.378,10.681
		c2.333,0.476,5.648,12.807-6.032,12.307c-10.1-0.432-42.456-1.696-53.504-2.24c-2.31-0.114-4.269-1.76-4.74-4.025
		c-1.681-8.083-0.656-20.487,2.438-20.631C921.684,1006.701,930.257,1008.499,940.344,1006.497z"/>
	<g>
		<path fill="#FFFFFF" d="M723.845,972.481c7.098-4.978,23.3-19.673,23.3-19.673l-14.263-17.933l-24.135,22.292l1.916,18.287
			L723.845,972.481z"/>
		<path fill="#1F1F39" d="M727.768,971.483c1.935,1.532-0.483,2.161-2.783,5.099c-5.263,6.726,13.218,30.587,15.444,34.626
			c1.149,2.085-6.092,12.602-13.282,3.384c-6.217-7.971-26.225-33.43-32.972-42.196c-1.411-1.833-1.426-4.392-0.007-6.219
			c5.066-6.519,15.176-13.778,17.291-11.516C715.518,957.405,719.706,965.099,727.768,971.483z"/>
	</g>
	<path fill="#3B3B4C" d="M943.89,996.104c0.472,4.864-36.095,5.638-37.18,1.887c-1.085-3.755-3.359-102.307-13.186-129.646
		c-1.613-4.482-3.746-10.388-6.185-17.125c-0.585-1.628-32.83-90.457-32.83-90.457c-8.709,34.467-14.106,75.492-29.377,111.479
		c-23.352,46.606-79.323,86.791-84.06,91.914c-4.736,5.123-30.297-19.696-25.914-23.588c4.383-3.887,65.123-63.854,72.478-83.3
		c6.18-16.347,7.916-92.334,13.455-145.205c1.028-9.841,2.269-18.913,3.774-26.707c0.462-2.401,16.564-5.26,33.571-7.619
		c19.338-2.684,39.845-4.727,39.845-4.727l14.464-3.062c9.336,30.33,39.841,180.602,40.383,184.437
		c0.189,1.345,0.326,2.467,0.406,3.35C935.304,876.813,943.418,991.245,943.89,996.104z"/>
	<path opacity="0.57" fill="#1F1F39" d="M865.244,787.167c-6.176-15.263-10.736-26.399-10.736-26.399
		c2.41-10.371,4.364-22.565,4.364-22.565S864.67,769.242,865.244,787.167z"/>
	<path opacity="0.6" fill="#1F1F39" d="M854.99,682.968c-10.997,20.442-38.251,25.249-53.899,29.094
		c1.028-9.841,2.269-18.913,3.774-26.707c0.462-2.401,16.564-5.26,33.571-7.619L854.99,682.968z"/>
</g>
<path opacity="0.14" fill="#32323F" d="M612.951,1033.021c0,3.363,107.402,7.268,231.152,7.268s224.07-2.726,224.07-6.089
	c0-3.363-100.319-6.089-224.07-6.089S612.951,1029.658,612.951,1033.021z"/>
<path opacity="0.46" fill="#1F1F39" d="M856.185,743.063c0,0,0.007,0.019,0.013,0.05c0.176-0.106,0.25-0.156,0.271-0.174
	C856.422,742.945,856.185,743.063,856.185,743.063z"/>
<path fill="#EFAEA6" d="M1031.407,604.188l-1.5,0.005c0,0-3.224,0.588-7.192,1.683c-4.349,1.202-9.596,3.016-12.48,5.344
	c-3.156,2.543-8.713,3.198-13.016,8.923c-3.218,4.288-17.68-9.375-17.68-9.375l11.38-22.754c7.925-2.511,23.236-1.323,30.736-0.303
	c8.33,1.128,17.015,6.23,17.015,6.23L1031.407,604.188z"/>
<path opacity="0.14" fill="#1F1F39" d="M1022.716,605.876c-4.349,1.202-9.596,3.016-12.48,5.344
	c-0.9-14.268,9.163-20.231,13.078-18.174c2.441,1.286-0.061,7.419-0.061,7.419L1022.716,605.876z"/>
<path opacity="0.16" fill="#1F1F39" d="M985.351,581.71c0,0-19.663-14.847-45.745-8.226c-25.221,6.402-57.918,26.083-63.803,26.885
	c-5.885,0.803-84.287,17.635-89.996,22.728c-5.709,5.094,49.935-3.467,54.75-2.129c4.815,1.338,134.561-37.72,134.561-37.72
	S983.479,583.85,985.351,581.71z"/>
<path fill="#FFFFFF" d="M993.406,585.608c4.98,4.252-4.497,18.945-0.352,25.075c2.516,3.72,11.312-0.953,14.175-0.524
	c1.762,0.264,3.591,0.372,3.284,3.242c-6.233,58.363-122.547,91.404-124.91,100.077c-1.933,7.093-34.067-12.635-43.817-33.297
	c-13.372-28.336,12.653-46.606,17.953-49.681c5.3-3.075,98.255-51.7,98.255-51.7S975.866,582.164,993.406,585.608z"/>
<path fill="#0267A4" d="M1010.512,613.399c0,0-13.987,6.203-26.549,19.26c-16.607,17.249-38.504,16.816-59.245,36.872
	c-26.834,25.947-50.884,32.014-51.513,44.698c-0.369,7.393,19.367,12.851,32.5,12.982c8.506,0.084,24.636-22.238,32.701-30.337
	c3.142-3.157,8.357-11.656,21.659-19.855c3.864-2.385,17.134-10.619,22.314-14.757c6.952-5.553,20.918-21.127,23.637-28.03
	C1008.348,628.313,1012.498,614.949,1010.512,613.399z"/>
<path fill="#0267A4" d="M993.692,585.665c-5.165,8.498-29.315,26.299-53.578,42.865c-4.632,3.161-9.27,6.283-13.779,9.281
	c-4.298,2.856-9.267,6.12-14.44,9.392c-10.738,6.784-22.365,13.592-30.767,16.809c-22.425,8.586-15.806,25.949-34.079,29.006
	c-16.449,2.75-45.955,0.186-50.282-14.751c-5.154-17.792,47.858-45.468,69.116-56.392c4.679-2.397,8.57-4.67,11.081-6.746
	c2.672-2.208,4.846-4.062,6.756-5.717c0.001-0.005,0.001-0.005,0.001-0.005c1.701-1.47,3.182-2.777,4.62-4.034
	c3.62-3.176,6.943-6.036,12.548-10.29c2.737-2.075,8.971-5.589,13.442-7.97c11.419-6.08,29.177-11.88,38.792-11.912
	C977.719,575.121,993.692,585.665,993.692,585.665z"/>
<g>
	<path fill="#EFAEA6" d="M1051.873,616.537c-6.574,2.1-17.793,12.45-18.776,7.81s-13.887,4.452-15.106-0.447
		c-2.953-11.868,1.471-27.306,6.769-30.14s21.208-5.59,21.208-5.59L1051.873,616.537z"/>
	<path fill="#1F1F39" d="M1042.787,605.693c0.379,3.868-0.465,4.184,1.349,6.541c1.814,2.357,4.386-3.022,6.24,1.723
		c1.854,4.745,3.311,10.086,8.921,9.344c8.119-1.073,5.325-8.019,3.444-12.275c-1.21-2.739,4.73-4.843,3.234-10.528
		c-1.174-4.46-3.627-3.346-4.846-7.277c-0.736-2.374,2.142-7.999-1.518-11.131c-6.79-5.81-12.022,1.527-18.913-3.021
		c-8.037-5.305-18.678,13.67-16.59,15.11c2.437,1.681,8.576-3.02,10.638-1.228c3.109,2.704,0.49,3.729-1.432,7.031
		c-2.052,3.527-1.058,8.944,3.373,4.308C1041.118,599.652,1042.444,602.192,1042.787,605.693z"/>
</g>
<path opacity="0.35" fill="#1F1F39" d="M987.691,608.327c-1.04,2.388,0.336,3.362-0.44,5.325s-9.265,21.869-10.31,30.202
	c-0.733,5.846-2.301,24.055-2.301,24.055l7.53-5.857l5.336-33.508l3.844-19.22L987.691,608.327z"/>
<path opacity="0.35" fill="#1F1F39" d="M827.449,643.206l-13.844,9.932c0,0,77.647-14.245,101.122-34.109
	C938.201,599.165,827.449,643.206,827.449,643.206z"/>
<g>
	<path fill="#EEADA5" d="M791.28,626.055c-18.751,5.312-12.037-8.117-14.672-8.494c-4.393-0.627-5.45,6.477-6.357,8.607
		c-3.684,8.65-18.843-7.663-20.516-3.759c-2.824,6.589,3.96,24.054,16.204,22.764c2.912-0.307,5.966-3.201,12.237-3.451
		c7.844-0.314,15.029,0.823,14.425-1.34C791.998,638.219,793.092,625.542,791.28,626.055z"/>
	<path fill="#0267A4" d="M926.183,581.203c-12.101,5.762-42.136,23.222-53.867,25.054c-11.931,1.863-81.275,14.523-86.241,16.305
		c-4.966,1.782-5.772,24.65-2.735,26.958c3.037,2.308,86.296-11.955,93.278-13.572c31.139-7.211,82.284-24.1,89.174-29.65
		c6.89-5.55,14.789-8.941,10.728-19.987C973.306,577.568,938.284,575.441,926.183,581.203z"/>
</g>
<path fill="#0267A4" d="M912.659,591.582c-4.752,1.416-7.706,3.716-11.834,7.385c-4.127,3.669-0.718,4.762,0.229,5.373
	c0.946,0.611,11.577,1.837,12.433,0.725S912.659,591.582,912.659,591.582z"/>
<path fill="#0267A4" d="M870.811,621.127c-4.768,2.585-7.089,1.918-8.898,5.721c-1.809,3.802,15.952,3.438,15.952,3.438
	l-2.208-7.785L870.811,621.127z"/>
<path fill="#F4AD00" d="M988.037,608.466c0.692-2.293,2.703-3.731,6.237-3.02c3.071,0.618,3.972,5.272,1.19,7.661
	c-2.328,1.999-5.89,17.198-7.806,37.842c-1.149,12.387,5.405,27.05,3.6,41.691c-4.861,39.431,10.299,72.396,9.59,78.123
	c-0.709,5.727-2.051,11.128-4.584,9.822c-2.533-1.306-9.638-6.464-10.216-11.252s-10.633-34.819-6.19-75.381
	c1.601-14.616-1.49-31.457-0.611-43.645c1.062-14.715,10.579-35.88,10.622-37.688C989.924,610.369,987.363,610.699,988.037,608.466z
	"/>
<path fill="#FFFFFF" d="M444.928,692.216c-2.189,15.322-0.021,37.372,0,52.85c0.057-0.449,0.114-0.897,0.17-1.346
	c12.621,1.69,25.351,2.57,38.084,2.632c-1.557,0.031-3.113,0.063-4.67,0.094c40.041,1.532,80.436-14.834,108.12-43.804
	c-10.852-13.794-24.963-34.158-35.816-47.953C525.72,685.948,482.547,701.525,444.928,692.216z"/>
<path fill="#FFFFFF" d="M147.933,690.732c1.992-13.941,0.019-34.004,0-48.087c-0.052,0.408-0.103,0.817-0.155,1.225
	c-11.484-1.537-23.066-2.338-34.652-2.395c1.416-0.029,2.833-0.057,4.249-0.086c-36.433-1.394-73.187,13.497-98.376,39.856
	c9.874,12.551,22.714,31.08,32.588,43.631C74.421,696.436,113.703,682.262,147.933,690.732z"/>
<path fill="#FFFFFF" d="M316.532,598.108c-2.19,15.322-0.021,37.372,0,52.85c0.057-0.449-0.021,2.722,0.035,2.274
	c12.621,1.69,25.486-1.05,38.219-0.988c-1.557,0.031-3.113,0.063-4.67,0.094c40.041,1.532,49.373-35.583,108.12-43.804
	c-10.852-13.794-24.963-34.158-35.816-47.953C366.661,566.418,363.014,610.19,316.532,598.108z"/>
<path fill="#FFFFFF" d="M530.784,314.073c15.576-0.856,29.482,8.739,39.057,20.031c9.575,11.293,16.269,24.605,26.2,35.622
	c7.969,8.84,19.01,16.292,31.056,17.789c4.105,0.51,6.394,4.611,4.444,8.097c-8.388,15.001-20.625,37.509-28.645,51.792
	c-2.129,3.792-6.691,5.844-11.084,4.937c-16.444-3.394-31.576-11.786-42.445-23.707c-8.185-8.977-13.979-19.79-22.775-28.24
	c-10.267-9.863-24.509-15.933-39.299-17.059c-4.351-0.331-6.444-5.082-3.693-8.338C498.959,356.815,519.323,328.394,530.784,314.073
	z"/>
<g>
	<path fill="#FFFFFF" d="M575.871,551.088c29.224,0.883,38.667-11.851,53.099-37.279c14.503,10.4,46.672,22.272,60.875,33.611
		c-7.22,9.149-12.52,13.277-21.569,20.623s-20.123,12.753-31.776,12.98c-11.914,0.233-23.267-4.885-33.621-10.783
		C593.099,564.67,583.773,558.305,575.871,551.088z"/>
	<path fill="#EFEFEF" d="M609.682,574.149c-11.622-7.947-9.665-17.092-13.859-30.532c-1.463-4.688-2.451-9.697-5.431-13.6
		c-3.434-4.498-19.721-9.589-24.802-12.081c-9.816-4.815-18.935-11.05-26.983-18.451c3.657,17.119,14.249,32.131,27.107,44.01
		S593.695,564.477,609.682,574.149z"/>
</g>
<g>
	<path fill="#FFFFFF" d="M293.656,800.584c-29.224,0.883-54.819-0.825-69.251-26.252c-14.503,10.4-37.593,31.702-51.796,43.042
		c7.22,9.149,48.765,12.918,60.418,13.146c11.914,0.233,23.267-4.885,33.621-10.783
		C276.428,814.167,285.754,807.802,293.656,800.584z"/>
	<path fill="#EFEFEF" d="M259.844,823.645c11.622-7.947,9.665-17.092,13.86-30.532c1.463-4.688,2.451-9.697,5.431-13.6
		c3.434-4.498,19.721-9.589,24.802-12.081c9.816-4.815,18.935-11.05,26.983-18.451c-3.657,17.119-14.249,32.131-27.107,44.01
		C290.955,804.87,275.832,813.974,259.844,823.645z"/>
</g>
<g>
	<path fill="#FFFFFF" d="M1065.948,564.253c-0.352,1.579,1.716,2.513,2.668,1.205c4.694-6.453,8.159-15.077,4.648-16.755
		C1070.268,547.272,1067.452,557.506,1065.948,564.253z"/>
	<path fill="#FFFFFF" d="M1047.278,561.73c0.414,1.523,2.598,1.443,2.91-0.105c2.189-10.866,1.3-25.022-4.243-24.875
		C1041.156,536.877,1044.941,553.139,1047.278,561.73z"/>
	<path fill="#FFFFFF" d="M1031.944,563.165c0.965,1.33,3.06,0.351,2.661-1.243c-1.686-6.726-5.305-13.548-8.386-12.222
		C1023.599,550.827,1028.317,558.162,1031.944,563.165z"/>
</g>
</svg>
