<?xml version="1.0" encoding="iso-8859-1"?>
<!-- Generator: Adobe Illustrator 24.3.0, SVG Export Plug-In . SVG Version: 6.00 Build 0)  -->
<svg version="1.1" id="Layer_2_1_" xmlns="http://www.w3.org/2000/svg" xmlns:xlink="http://www.w3.org/1999/xlink" x="0px" y="0px"
	 viewBox="0 0 1920 1080" enable-background="new 0 0 1920 1080" xml:space="preserve">
<rect fill="#2C2976" width="1920" height="1080"/>
<path opacity="0.2" fill="none" stroke="#FFFFFF" stroke-miterlimit="10" enable-background="new    " d="M-110.5,351.5
	c141.328-15.188,298.495-24.733,432,18c126.35,40.443,273.492,85.164,349.635,207.246c5.468,8.766,10.289,17.946,14.684,27.291
	c40.258,85.58,40.258,84.199,54.348,94.552c14.09,10.352-7.381-16.564-23.484-46.241s-41.599-67.636-32.877-96.622
	c8.722-28.987,40.258-31.747,79.173-73.157c38.916-41.41,49.651-46.241,76.49-33.128s69.109,16.564,97.289,15.183
	c28.18-1.38,41.599-5.521,71.793,23.465c30.194,28.986,48.98,24.156,70.451,56.594c3.644,5.506,7.487,12.035,11.932,16.841
	c5.129,5.547,12.881,9.272,18.444,14.616c3.545,3.405,14.962,10.837,13.475,15.586c-1.124,3.589-5.003,5.698-8.668,5.668
	s-14.914-4.483-17.977-6.554c-5.218-3.528-9.763-8.104-13.304-13.395c-2.079-3.107-3.78-7.42-1.589-10.445
	c1.289-1.78,3.625-2.49,5.777-2.329c2.153,0.161,4.18,1.06,6.149,1.971c6.337,2.929,12.638,6.146,17.948,10.753
	s13.941,10.164,16.457,21.293c3.147,13.922-2.654,19.696-14.09,24.069c-13.703,5.24-40.238-1.285-51.328-9.748
	c-41.6-31.747-44.283-35.888-71.122-47.621s-34.219-1.38-48.98-27.607c-14.761-26.226,2.013-18.634,13.419,1.38
	c11.406,20.015,12.748,25.536-21.471,35.198s-78.502,34.508-98.631,46.241c-20.129,11.733-42.941,33.128-55.019,45.55
	s-28.684,37.096-2.013,40.719s43.78-24.328,54.348-38.304c10.568-13.976,68.941-49.174,74.477-61.597
	c5.535-12.423-27.677,20.705-54.348,35.198s-47.303,61.079-52.335,69.361c-5.032,8.282-7.045,23.293-8.555,40.374
	s-12.077,40.892-2.013,53.832c10.064,12.94,29.69-4.141,38.748-35.198s10.064-51.244,32.709-66.255
	c22.645-15.011,45.29-37.269,48.309-47.621c3.019-10.352-28.18,28.469-47.303,39.339s-31.703,43.48-30.696,80.231
	c1.006,36.751,8.052,45.033,15.6,54.35c7.548,9.317,14.593-11.905,15.6-38.304c1.006-26.399,55.857-68.326,54.348-70.914
	c-1.51-2.588-32.206,16.564-49.316,46.068s-17.109,72.984-4.026,86.96s27.174,24.328,37.909,21.912
	c10.735-2.415,15.432-18.979,15.432-18.979s12.077,0.69,23.651-8.109s11.071-19.669,11.071-19.669s24.658-7.247,31.2-18.117
	s6.542-12.94,6.542-12.94s15.097-1.035,24.658-7.247c9.561-6.211,14.593-15.011,14.593-15.011s14.09,17.599,34.219-8.282
	s18.619-37.269,6.039-39.857c-12.581-2.588-42.271,2.588-46.8,17.081s-7.548,24.328-3.523,26.399
	c4.026,2.07,7.045-10.352,7.045-23.293s-21.135-26.916-44.787-25.363s-36.232,16.564-33.716,31.057s15.6,30.022,23.651,35.716
	c8.052,5.694-12.077-16.564-17.613-30.54c-5.535-13.976-17.109-26.399-33.716-21.74c-16.606,4.659-34.219,31.575-18.116,55.903
	c10.937,16.523,36.178,31.833,45.793,36.751c1.545,0.79,2.957-1.282,1.697-2.495c-9.751-9.382-38.069-30.776-50.342-22.696
	c-16.774,11.043-16.774,36.924,4.026,48.656c20.799,11.732,39.989-7.526,38.916-1.727c-1.342,7.248-1.784,13.795,1.174,19.93
	c2.208,4.579,9.138,8.281,14.02,9.233c5.215,1.018,10.4-1.528,15.103-4.059c5.603-3.015,11.495-6.455,14.339-12.264
	c3.633-7.424,0.68-17.331-6.036-21.952c-6.716-4.621-16.253-3.918-22.7,1.093c-6.447,5.01-9.704,13.768-8.883,22.036
	c0.374,3.763,1.683,7.679,4.633,9.938c3.951,3.026,9.493,2.204,14.208,0.738c11.126-3.459,18.674-10.358,28.262-16.414
	c10.1-6.378,20.031-13.151,29.913-20.008c17.774-12.335,37.071-26.75,58.546-31.06c27.509-5.521,62.399-29.677,70.451-48.311
	c8.051-18.633,46.292-64.18,65.08-106.968c17.406-39.642,40.87-75.9,70.153-107.832c46.155-50.332,90.824-93.743,153.656-122.843
	c62.945-29.152,132.54-39.234,199.866-54.591C2126.683,258.27,1977.5,188.5,2004.5,270.5"/>
</svg>
