<?xml version="1.0" encoding="utf-8"?>
<!-- Generator: Adobe Illustrator 24.3.0, SVG Export Plug-In . SVG Version: 6.00 Build 0)  -->
<svg version="1.1" id="Layer_1" xmlns="http://www.w3.org/2000/svg" xmlns:xlink="http://www.w3.org/1999/xlink" x="0px" y="0px"
	 viewBox="0 0 350 20" style="enable-background:new 0 0 350 20;" width="350px" height="20px" xml:space="preserve">
<style type="text/css">
	.st0{opacity:0.82;fill-rule:evenodd;clip-rule:evenodd;fill:#95CBDE;}
</style>
<path class="st0" d="M48.3,2.4C32.8,2.6,13.6,3.3,10,3.8L8.4,4l0.3,2.4c0.2,1.3,0.5,2.6,0.7,2.8c0.6,0.8,4.8,0.9,12.9,0.6
	c7.8-0.4,18.6-0.6,31.3-0.8c14.5-0.2,55.5-0.2,55.8,0c0.1,0.1-7.1,0.2-16,0.3c-18,0.2-33.2,0.5-51.1,0.9C18.1,10.7,9.7,11,5.8,11.6
	L3.2,12l-0.1,0.8c-0.1,0.8,0.7,2.4,2.1,3.9c0.6,0.7,0.9,0.8,1.9,0.9c0.6,0,1.6,0.1,2.1,0.1c0.5,0,5-0.1,9.9-0.3
	c21.5-0.8,54-1.5,91.5-1.8c28.5-0.2,139.6-0.2,152.6,0c25.4,0.5,46.8,1,61.4,1.5c9.3,0.3,12.9,0.4,14.9,0.2c1.5-0.1,2.6-0.8,5.6-3.4
	c1.7-1.5,2.1-2,1.7-2.2c-0.3-0.1-1.6-0.3-2.9-0.4c-2.1-0.2-4-0.3-11.5-0.6c-2.5-0.1-2.8-0.2-0.9-0.5c0.9-0.1,1.6-0.3,1.6-0.3
	c0-0.1,0.3-0.8,0.6-1.6c0.8-1.6,0.5-2.7-0.6-2.9C330.3,4.9,323,4.7,281.1,4c-38.6-0.6-57.8-0.9-114.9-1.4
	C129.6,2.4,63.4,2.2,48.3,2.4z"/>
</svg>
