<?xml version="1.0" encoding="utf-8"?>
<!-- Generator: Adobe Illustrator 24.3.0, SVG Export Plug-In . SVG Version: 6.00 Build 0)  -->
<svg version="1.1" id="Layer_2_1_" xmlns="http://www.w3.org/2000/svg" xmlns:xlink="http://www.w3.org/1999/xlink" x="0px" y="0px"
	 viewBox="0 0 1920 1080" style="enable-background:new 0 0 1920 1080;" xml:space="preserve">
<style type="text/css">
	.st0{fill:#F8EDED;}
	.st1{opacity:0.5;fill:none;stroke:#606AA5;stroke-miterlimit:10;enable-background:new    ;}
</style>
<rect y="-0.3" class="st0" width="1920" height="1080.5"/>
<path class="st1" d="M-110.5,446.8c141.3-15.2,298.5-24.7,432,18C447.9,505.2,595,549.9,671.1,672c5.5,8.8,10.3,17.9,14.7,27.3
	c40.3,85.6,40.3,84.2,54.3,94.6c14.1,10.4-7.4-16.6-23.5-46.2S675.1,680,683.8,651c8.7-29,40.3-31.7,79.2-73.2
	c38.9-41.4,49.7-46.2,76.5-33.1c26.8,13.1,69.1,16.6,97.3,15.2c28.2-1.4,41.6-5.5,71.8,23.5c30.2,29,49,24.2,70.5,56.6
	c3.6,5.5,7.5,12,11.9,16.8c5.1,5.5,12.9,9.3,18.4,14.6c3.5,3.4,15,10.8,13.5,15.6c-1.1,3.6-5,5.7-8.7,5.7c-3.7,0-14.9-4.5-18-6.6
	c-5.2-3.5-9.8-8.1-13.3-13.4c-2.1-3.1-3.8-7.4-1.6-10.4c1.3-1.8,3.6-2.5,5.8-2.3c2.2,0.2,4.2,1.1,6.1,2c6.3,2.9,12.6,6.1,17.9,10.8
	s13.9,10.2,16.5,21.3c3.1,13.9-2.7,19.7-14.1,24.1c-13.7,5.2-40.2-1.3-51.3-9.7c-41.6-31.7-44.3-35.9-71.1-47.6
	c-26.8-11.7-34.2-1.4-49-27.6c-14.8-26.2,2-18.6,13.4,1.4c11.4,20,12.7,25.5-21.5,35.2s-78.5,34.5-98.6,46.2
	c-20.1,11.7-42.9,33.1-55,45.5s-28.7,37.1-2,40.7s43.8-24.3,54.3-38.3c10.6-14,68.9-49.2,74.5-61.6c5.5-12.4-27.7,20.7-54.3,35.2
	s-47.3,61.1-52.3,69.4c-5,8.3-7,23.3-8.6,40.4s-12.1,40.9-2,53.8c10.1,12.9,29.7-4.1,38.7-35.2s10.1-51.2,32.7-66.3
	c22.6-15,45.3-37.3,48.3-47.6c3-10.4-28.2,28.5-47.3,39.3s-31.7,43.5-30.7,80.2c1,36.8,8.1,45,15.6,54.3
	c7.5,9.3,14.6-11.9,15.6-38.3c1-26.4,55.9-68.3,54.3-70.9c-1.5-2.6-32.2,16.6-49.3,46.1s-17.1,73-4,87s27.2,24.3,37.9,21.9
	c10.7-2.4,15.4-19,15.4-19s12.1,0.7,23.7-8.1s11.1-19.7,11.1-19.7s24.7-7.2,31.2-18.1s6.5-12.9,6.5-12.9s15.1-1,24.7-7.2
	c9.6-6.2,14.6-15,14.6-15s14.1,17.6,34.2-8.3s18.6-37.3,6-39.9c-12.6-2.6-42.3,2.6-46.8,17.1s-7.5,24.3-3.5,26.4
	c4,2.1,7-10.4,7-23.3s-21.1-26.9-44.8-25.4s-36.2,16.6-33.7,31.1s15.6,30,23.7,35.7c8.1,5.7-12.1-16.6-17.6-30.5
	c-5.5-14-17.1-26.4-33.7-21.7c-16.6,4.7-34.2,31.6-18.1,55.9c10.9,16.5,36.2,31.8,45.8,36.8c1.5,0.8,3-1.3,1.7-2.5
	c-9.8-9.4-38.1-30.8-50.3-22.7c-16.8,11-16.8,36.9,4,48.7c20.8,11.7,40-7.5,38.9-1.7c-1.3,7.2-1.8,13.8,1.2,19.9
	c2.2,4.6,9.1,8.3,14,9.2c5.2,1,10.4-1.5,15.1-4.1c5.6-3,11.5-6.5,14.3-12.3c3.6-7.4,0.7-17.3-6-22c-6.7-4.6-16.3-3.9-22.7,1.1
	c-6.4,5-9.7,13.8-8.9,22c0.4,3.8,1.7,7.7,4.6,9.9c4,3,9.5,2.2,14.2,0.7c11.1-3.5,18.7-10.4,28.3-16.4c10.1-6.4,20-13.2,29.9-20
	c17.8-12.3,37.1-26.8,58.5-31.1c27.5-5.5,62.4-29.7,70.5-48.3c8.1-18.6,46.3-64.2,65.1-107c17.4-39.6,40.9-75.9,70.2-107.8
	c46.2-50.3,90.8-93.7,153.7-122.8c62.9-29.2,132.5-39.2,199.9-54.6c483.1-110.2,333.9-180,360.9-98"/>
</svg>
