<?xml version="1.0" encoding="utf-8"?>
<!-- Generator: Adobe Illustrator 24.3.0, SVG Export Plug-In . SVG Version: 6.00 Build 0)  -->
<svg version="1.1" id="Layer_1" xmlns="http://www.w3.org/2000/svg" xmlns:xlink="http://www.w3.org/1999/xlink" x="0px" y="0px"
	 viewBox="0 0 240 250" style="enable-background:new 0 0 240 250;" width="240px" height="250px" xml:space="preserve">
<style type="text/css">
	.st0{fill:#FFFFFF;}
	.st1{fill:#5F6BA4;}
	.st2{fill:#2C2A77;}
	.st3{fill:#606BA5;}
</style>
<path class="st0" d="M172.6,244.9H6v-172c0-37,30-66.9,66.9-66.9h160.8v177.8C233.7,217.5,206.4,244.9,172.6,244.9z"/>
<path class="st1" d="M171.6,249.6H0.9v-180C0.9,32,31.5,1.4,69.1,1.4h170.6v180C239.8,219,209.2,249.6,171.6,249.6z M12.5,238h159.1
	c31.2,0,56.7-25.4,56.7-56.6V12.9H69.1c-31.2,0-56.6,25.4-56.6,56.6V238z"/>
<path class="st2" d="M189.9,204.7v-1.6h5.1v-2.9h-5.1v-1.4h5.8v-3.1h-9.9v12.1h10.1v-3.1H189.9z M176.8,207.8h4.1v-9h3.6v-3.2h-11.2
	v3.2h3.6V207.8z M167.9,195.6v5.5l-4.6-5.5h-3.4v12.1h4v-5.5l4.6,5.5h3.4v-12.1H167.9z M150.4,202.7l1.2-3l1.2,3H150.4z
	 M154.7,207.8h4.2l-5.3-12.1h-4l-5.3,12.1h4.2l0.8-2.1h4.6L154.7,207.8z M135.2,204.6v-5.8h1.7c0.9,0,1.6,0.3,2.1,0.8
	c0.5,0.5,0.8,1.2,0.8,2.1c0,0.9-0.3,1.6-0.8,2.1s-1.2,0.8-2.1,0.8H135.2z M131.1,207.8h6c1.4,0,2.5-0.2,3.6-0.7
	c1-0.5,1.8-1.2,2.4-2.1c0.6-0.9,0.9-2,0.9-3.2c0-1.2-0.3-2.3-0.9-3.2c-0.6-0.9-1.4-1.6-2.4-2.1c-1-0.5-2.2-0.7-3.6-0.7h-6V207.8z
	 M124.8,195.6v5.5l-4.6-5.5h-3.4v12.1h4v-5.5l4.6,5.5h3.4v-12.1H124.8z M108.8,204.7v-1.6h5.1v-2.9h-5.1v-1.4h5.8v-3.1h-9.9v12.1
	h10.1v-3.1H108.8z M97.3,201.6h-1.5v-2.8h1.5c0.6,0,1,0.1,1.2,0.4c0.3,0.2,0.4,0.6,0.4,1c0,0.5-0.1,0.8-0.4,1
	C98.3,201.5,97.9,201.6,97.3,201.6 M97.6,195.6h-5.8v12.1h4.1v-3h1.7c1.1,0,2.1-0.2,2.9-0.6c0.8-0.4,1.5-0.9,1.9-1.6
	c0.5-0.7,0.7-1.5,0.7-2.4c0-0.9-0.2-1.7-0.7-2.4c-0.5-0.7-1.1-1.2-1.9-1.6C99.7,195.8,98.7,195.6,97.6,195.6 M82.9,194.6h2.6
	l3.4-2.8h-3.7L82.9,194.6z M83.8,204.7v-1.6h5.1v-2.9h-5.1v-1.4h5.8v-3.1h-9.9v12.1h10.1v-3.1H83.8z M69.2,204.6v-5.8h1.7
	c0.9,0,1.6,0.3,2.1,0.8c0.5,0.5,0.8,1.2,0.8,2.1c0,0.9-0.3,1.6-0.8,2.1s-1.2,0.8-2.1,0.8H69.2z M65.1,207.8h6c1.4,0,2.5-0.2,3.6-0.7
	c1-0.5,1.8-1.2,2.4-2.1c0.6-0.9,0.9-2,0.9-3.2c0-1.2-0.3-2.3-0.9-3.2c-0.6-0.9-1.4-1.6-2.4-2.1c-1-0.5-2.2-0.7-3.6-0.7h-6V207.8z
	 M58.8,195.6v5.5l-4.6-5.5h-3.4v12.1h4v-5.5l4.6,5.5h3.4v-12.1H58.8z M44.4,207.8h4.1v-12.1h-4.1V207.8z"/>
<path class="st3" d="M185.5,181.4v-2.9h9.2v-5.3h-9.2v-2.6H196v-5.6h-17.8V187h18.2v-5.6H185.5z M157.7,187h17.2v-5.7h-9.9v-16.1
	h-7.4V187z M139.9,177.9l2.1-5.5l2.1,5.5H139.9z M147.7,187h7.6l-9.5-21.8h-7.2l-9.6,21.8h7.5l1.5-3.8h8.3L147.7,187z M119.1,187
	h7.4v-21.8h-7.4V187z M106,187.5c2.1,0,4-0.4,5.7-1.1c1.7-0.7,3-1.8,4.1-3.2l-4.6-4.2c-1.4,1.7-2.9,2.6-4.8,2.6
	c-1.5,0-2.8-0.5-3.7-1.5s-1.4-2.3-1.4-4s0.5-3,1.4-4c0.9-1,2.2-1.5,3.7-1.5c1.8,0,3.4,0.9,4.8,2.6l4.6-4.2c-1.1-1.4-2.5-2.5-4.1-3.2
	c-1.7-0.7-3.6-1.1-5.7-1.1c-2.3,0-4.4,0.5-6.2,1.5c-1.9,1-3.3,2.3-4.4,4.1c-1.1,1.7-1.6,3.7-1.6,5.9s0.5,4.2,1.6,5.9
	c1.1,1.7,2.5,3.1,4.4,4.1C101.6,187,103.7,187.5,106,187.5 M78.4,181.5c-0.9,0-1.7-0.2-2.5-0.7c-0.7-0.4-1.3-1.1-1.8-1.9
	c-0.4-0.8-0.7-1.8-0.7-2.9s0.2-2.1,0.7-2.9c0.4-0.8,1-1.5,1.8-1.9c0.7-0.4,1.6-0.7,2.5-0.7c0.9,0,1.7,0.2,2.5,0.7
	c0.7,0.4,1.3,1.1,1.8,1.9c0.4,0.8,0.7,1.8,0.7,2.9s-0.2,2.1-0.7,2.9c-0.4,0.8-1,1.5-1.8,1.9C80.2,181.3,79.3,181.5,78.4,181.5
	 M78.4,187.5c2.4,0,4.5-0.5,6.3-1.5c1.9-1,3.3-2.3,4.4-4.1c1.1-1.7,1.6-3.7,1.6-5.9s-0.5-4.1-1.6-5.9c-1.1-1.7-2.5-3.1-4.4-4.1
	c-1.9-1-4-1.5-6.3-1.5c-2.4,0-4.5,0.5-6.3,1.5c-1.9,1-3.3,2.3-4.4,4.1c-1.1,1.7-1.6,3.7-1.6,5.9s0.5,4.1,1.6,5.9
	c1.1,1.7,2.5,3.1,4.4,4.1C74,187,76.1,187.5,78.4,187.5 M53.4,187.5c2.2,0,4-0.3,5.6-1c1.5-0.7,2.7-1.5,3.4-2.7
	c0.8-1.1,1.2-2.4,1.2-3.7c0-1.6-0.4-2.8-1.3-3.7c-0.8-0.9-1.8-1.6-3-2c-1.1-0.4-2.5-0.8-4.2-1.1c-1.3-0.3-2.2-0.5-2.8-0.7
	c-0.6-0.2-0.8-0.5-0.8-1c0-0.9,0.9-1.4,2.8-1.4c1.9,0,3.9,0.5,6.1,1.6l2.2-5.3c-1.1-0.6-2.4-1.1-3.8-1.4c-1.4-0.3-2.9-0.5-4.4-0.5
	c-2.2,0-4,0.3-5.6,1c-1.5,0.6-2.7,1.5-3.4,2.7s-1.2,2.4-1.2,3.7c0,1.6,0.4,2.8,1.2,3.8c0.8,0.9,1.8,1.6,2.9,2
	c1.1,0.4,2.5,0.8,4.2,1.1c1.3,0.3,2.3,0.5,2.8,0.7c0.6,0.2,0.9,0.6,0.9,1c0,0.4-0.2,0.7-0.7,0.9c-0.4,0.2-1.2,0.3-2.2,0.3
	c-1.2,0-2.4-0.2-3.7-0.5c-1.3-0.4-2.5-0.8-3.5-1.5l-2.4,5.4c1.1,0.7,2.5,1.2,4.2,1.6C49.8,187.3,51.5,187.5,53.4,187.5"/>
<path class="st2" d="M188.6,152.2v-2h6.5v-3.7h-6.5v-1.8h7.4v-3.9h-12.4v15.3h12.7v-3.9H188.6z M171.7,156.1h5.2v-11.3h4.5v-4h-14.1
	v4h4.5V156.1z M160,140.8v6.9l-5.8-6.9H150v15.3h5v-6.9l5.8,6.9h4.2v-15.3H160z M137.5,149.7l1.5-3.8l1.5,3.8H137.5z M142.9,156.1
	h5.3l-6.7-15.3h-5.1l-6.7,15.3h5.2l1-2.7h5.8L142.9,156.1z M120.4,156.1h5.2v-11.3h4.5v-4h-14.1v4h4.5V156.1z M107.8,156.5
	c1.5,0,2.8-0.2,3.9-0.7c1.1-0.5,1.9-1.1,2.4-1.9s0.8-1.6,0.8-2.6c0-1.1-0.3-2-0.9-2.6c-0.6-0.6-1.3-1.1-2.1-1.4
	c-0.8-0.3-1.8-0.5-2.9-0.8c-0.9-0.2-1.5-0.3-1.9-0.5c-0.4-0.2-0.6-0.4-0.6-0.7c0-0.6,0.7-1,2-1c1.3,0,2.8,0.4,4.3,1.1l1.5-3.7
	c-0.8-0.4-1.7-0.8-2.7-1s-2-0.3-3.1-0.3c-1.5,0-2.8,0.2-3.9,0.7s-1.9,1.1-2.4,1.9c-0.5,0.8-0.8,1.7-0.8,2.6c0,1.1,0.3,2,0.9,2.6
	c0.6,0.6,1.3,1.1,2.1,1.4c0.8,0.3,1.8,0.5,2.9,0.8c0.9,0.2,1.6,0.4,2,0.5c0.4,0.2,0.6,0.4,0.6,0.7c0,0.3-0.2,0.5-0.5,0.6
	c-0.3,0.1-0.8,0.2-1.5,0.2c-0.8,0-1.7-0.1-2.6-0.4c-0.9-0.3-1.7-0.6-2.4-1l-1.7,3.8c0.8,0.5,1.8,0.9,3,1.1
	C105.3,156.3,106.5,156.5,107.8,156.5 M93.6,156.1h5.2v-15.3h-5.2V156.1z M84.1,156.5c1.5,0,2.8-0.2,3.9-0.7
	c1.1-0.5,1.9-1.1,2.4-1.9c0.5-0.8,0.8-1.6,0.8-2.6c0-1.1-0.3-2-0.9-2.6c-0.6-0.6-1.3-1.1-2.1-1.4c-0.8-0.3-1.8-0.5-2.9-0.8
	c-0.9-0.2-1.6-0.3-1.9-0.5c-0.4-0.2-0.6-0.4-0.6-0.7c0-0.6,0.7-1,2-1c1.3,0,2.8,0.4,4.3,1.1l1.5-3.7c-0.8-0.4-1.7-0.8-2.7-1
	c-1-0.2-2-0.3-3.1-0.3c-1.5,0-2.8,0.2-3.9,0.7c-1.1,0.5-1.9,1.1-2.4,1.9c-0.5,0.8-0.8,1.7-0.8,2.6c0,1.1,0.3,2,0.9,2.6
	c0.6,0.6,1.3,1.1,2.1,1.4s1.8,0.5,2.9,0.8c0.9,0.2,1.6,0.4,2,0.5c0.4,0.2,0.6,0.4,0.6,0.7c0,0.3-0.2,0.5-0.5,0.6
	c-0.3,0.1-0.8,0.2-1.5,0.2c-0.8,0-1.7-0.1-2.6-0.4c-0.9-0.3-1.7-0.6-2.4-1l-1.7,3.8c0.8,0.5,1.8,0.9,3,1.1
	C81.6,156.3,82.8,156.5,84.1,156.5 M68.8,156.5c1.5,0,2.8-0.2,3.9-0.7c1.1-0.5,1.9-1.1,2.4-1.9c0.5-0.8,0.8-1.6,0.8-2.6
	c0-1.1-0.3-2-0.9-2.6c-0.6-0.6-1.3-1.1-2.1-1.4c-0.8-0.3-1.8-0.5-2.9-0.8c-0.9-0.2-1.5-0.3-1.9-0.5c-0.4-0.2-0.6-0.4-0.6-0.7
	c0-0.6,0.7-1,2-1c1.3,0,2.8,0.4,4.3,1.1l1.6-3.7c-0.8-0.4-1.7-0.8-2.7-1c-1-0.2-2-0.3-3.1-0.3c-1.5,0-2.8,0.2-3.9,0.7
	c-1.1,0.5-1.9,1.1-2.4,1.9c-0.5,0.8-0.8,1.7-0.8,2.6c0,1.1,0.3,2,0.9,2.6c0.6,0.6,1.3,1.1,2.1,1.4c0.8,0.3,1.8,0.5,2.9,0.8
	c0.9,0.2,1.6,0.4,2,0.5c0.4,0.2,0.6,0.4,0.6,0.7c0,0.3-0.2,0.5-0.5,0.6c-0.3,0.1-0.8,0.2-1.5,0.2c-0.8,0-1.7-0.1-2.6-0.4
	c-0.9-0.3-1.7-0.6-2.4-1l-1.7,3.8c0.8,0.5,1.8,0.9,3,1.1C66.3,156.3,67.6,156.5,68.8,156.5 M50.7,149.7l1.5-3.8l1.5,3.8H50.7z
	 M56.1,156.1h5.3l-6.7-15.3h-5.1L43,156.1h5.2l1-2.7h5.8L56.1,156.1z"/>
<g>
	<polygon class="st3" points="51.3,131.8 43.4,110.7 45.5,110.7 51.3,127.2 57.3,110.7 59.3,110.7 	"/>
	<path class="st3" d="M60.6,125c0,1.6,0.4,2.8,1.1,3.7c0.7,0.9,1.7,1.3,3,1.3c1.3,0,2.3-0.5,3-1.4c0.7-0.9,1.1-2.2,1.1-3.9
		c0-1.5-0.4-2.7-1.1-3.5c-0.7-0.9-1.7-1.3-3-1.3c-1.3,0-2.3,0.5-3,1.4C60.9,122.1,60.6,123.4,60.6,125 M68.7,131v-2.2
		c-0.4,0.9-1,1.6-1.7,2.1c-0.7,0.5-1.6,0.7-2.6,0.7c-1.7,0-3.1-0.6-4.2-1.8c-1.1-1.2-1.6-2.8-1.6-4.8c0-2,0.5-3.6,1.6-4.8
		c1-1.2,2.4-1.9,4.1-1.9c1,0,1.9,0.2,2.7,0.7c0.8,0.5,1.3,1.1,1.7,2v-2.2h1.7V131H68.7z"/>
	<path class="st3" d="M74.9,131v-12.3h1.6v1.9c0.5-0.8,1.1-1.4,1.8-1.8c0.7-0.4,1.5-0.6,2.5-0.6c1.4,0,2.4,0.4,3.2,1.2
		c0.8,0.8,1.1,1.9,1.1,3.2v8.3h-1.7v-7.6c0-1.2-0.3-2.1-0.8-2.7c-0.5-0.6-1.3-0.9-2.3-0.9c-1.3,0-2.2,0.4-2.8,1.2
		c-0.6,0.8-0.9,2-0.9,3.6v6.4H74.9z"/>
	<path class="st3" d="M97.9,123.4c-0.1-1.1-0.5-2-1.1-2.6c-0.7-0.6-1.5-0.9-2.7-0.9c-1,0-1.9,0.3-2.6,1c-0.7,0.6-1.1,1.5-1.2,2.6
		H97.9z M99.9,124.9h-9.6c0,1.6,0.4,2.8,1.2,3.7c0.7,0.9,1.7,1.4,3,1.4c0.9,0,1.7-0.2,2.3-0.7c0.7-0.5,1.2-1.2,1.7-2.2l1.5,0.9
		c-0.6,1.2-1.4,2.2-2.3,2.7c-0.9,0.6-2,0.9-3.3,0.9c-1.8,0-3.2-0.6-4.3-1.8c-1.1-1.2-1.6-2.8-1.6-4.7c0-2,0.5-3.6,1.6-4.9
		c1.1-1.2,2.5-1.9,4.3-1.9c1.7,0,3,0.6,4,1.7c1,1.1,1.5,2.7,1.5,4.6V124.9z"/>
	<path class="st3" d="M102,128.8l1.6-0.9c0.3,0.7,0.6,1.2,1.1,1.5c0.5,0.3,1.1,0.5,1.8,0.5c0.7,0,1.3-0.2,1.7-0.5
		c0.4-0.4,0.6-0.9,0.6-1.5c0-0.9-0.8-1.7-2.5-2.4c-0.2-0.1-0.3-0.1-0.4-0.2c-1.3-0.5-2.2-1-2.7-1.6c-0.5-0.5-0.8-1.2-0.8-2
		c0-1,0.4-1.9,1.1-2.6c0.7-0.7,1.7-1,2.8-1c1,0,1.8,0.2,2.5,0.6c0.7,0.4,1.2,1.1,1.5,1.9l-1.5,0.9c-0.2-0.6-0.5-1-1-1.3
		s-1-0.5-1.6-0.5c-0.6,0-1.1,0.2-1.4,0.5c-0.4,0.3-0.6,0.8-0.6,1.3c0,0.5,0.2,0.9,0.6,1.3c0.4,0.3,1.1,0.7,2.3,1.1
		c1.3,0.5,2.2,1,2.7,1.5c0.5,0.6,0.7,1.3,0.7,2.3c0,1.1-0.4,2-1.2,2.7c-0.8,0.7-1.9,1-3.2,1c-1,0-1.9-0.2-2.7-0.7
		C102.9,130.3,102.3,129.7,102,128.8"/>
	<path class="st3" d="M112.7,128.8l1.6-0.9c0.3,0.7,0.6,1.2,1.1,1.5c0.5,0.3,1.1,0.5,1.8,0.5c0.7,0,1.3-0.2,1.7-0.5
		c0.4-0.4,0.6-0.9,0.6-1.5c0-0.9-0.8-1.7-2.5-2.4c-0.2-0.1-0.3-0.1-0.4-0.2c-1.3-0.5-2.2-1-2.7-1.6c-0.5-0.5-0.8-1.2-0.8-2
		c0-1,0.4-1.9,1.1-2.6c0.7-0.7,1.7-1,2.8-1c1,0,1.8,0.2,2.5,0.6c0.7,0.4,1.2,1.1,1.5,1.9l-1.5,0.9c-0.2-0.6-0.5-1-1-1.3
		c-0.4-0.3-1-0.5-1.6-0.5c-0.6,0-1.1,0.2-1.4,0.5c-0.4,0.3-0.6,0.8-0.6,1.3c0,0.5,0.2,0.9,0.6,1.3c0.4,0.3,1.1,0.7,2.3,1.1
		c1.3,0.5,2.2,1,2.7,1.5c0.5,0.6,0.7,1.3,0.7,2.3c0,1.1-0.4,2-1.2,2.7c-0.8,0.7-1.9,1-3.2,1c-1,0-1.9-0.2-2.7-0.7
		C113.5,130.3,113,129.7,112.7,128.8"/>
	<path class="st3" d="M125.5,125c0,1.6,0.4,2.8,1.1,3.7c0.7,0.9,1.7,1.3,3,1.3c1.3,0,2.3-0.5,3-1.4c0.7-0.9,1.1-2.2,1.1-3.9
		c0-1.5-0.4-2.7-1.1-3.5c-0.7-0.9-1.7-1.3-3-1.3c-1.3,0-2.3,0.5-3,1.4C125.9,122.1,125.5,123.4,125.5,125 M133.7,131v-2.2
		c-0.4,0.9-1,1.6-1.7,2.1c-0.7,0.5-1.6,0.7-2.6,0.7c-1.7,0-3.1-0.6-4.2-1.8c-1.1-1.2-1.6-2.8-1.6-4.8c0-2,0.5-3.6,1.6-4.8
		c1-1.2,2.4-1.9,4.1-1.9c1,0,1.9,0.2,2.7,0.7c0.8,0.5,1.3,1.1,1.7,2v-2.2h1.7V131H133.7z"/>
	<polygon class="st3" points="151.7,131 151.7,112.5 146.2,112.5 146.2,110.7 159,110.7 159,112.5 153.5,112.5 153.5,131 	"/>
	<path class="st3" d="M164,129.9c1.3,0,2.5-0.5,3.4-1.5c0.9-1,1.4-2.2,1.4-3.6c0-1.4-0.5-2.6-1.4-3.6c-0.9-1-2-1.5-3.4-1.5
		c-1.3,0-2.5,0.5-3.4,1.5c-0.9,1-1.4,2.2-1.4,3.6c0,1.4,0.5,2.6,1.4,3.6C161.6,129.4,162.7,129.9,164,129.9 M164,131.5
		c-0.9,0-1.7-0.2-2.5-0.5c-0.8-0.3-1.5-0.8-2.2-1.5c-0.6-0.6-1.1-1.3-1.4-2.1c-0.3-0.8-0.5-1.6-0.5-2.5c0-0.9,0.2-1.7,0.5-2.5
		c0.3-0.8,0.8-1.5,1.4-2.1c0.6-0.6,1.3-1.1,2.1-1.4c0.8-0.3,1.6-0.5,2.5-0.5c0.9,0,1.7,0.2,2.5,0.5c0.8,0.3,1.5,0.8,2.1,1.4
		c0.6,0.6,1.1,1.3,1.4,2.1c0.3,0.8,0.5,1.6,0.5,2.5c0,0.9-0.2,1.7-0.5,2.5c-0.3,0.8-0.8,1.5-1.4,2.1c-0.6,0.6-1.4,1.1-2.2,1.5
		C165.7,131.3,164.9,131.5,164,131.5"/>
	<polygon class="st3" points="174.4,120.2 172.2,120.2 172.2,118.7 174.4,118.7 174.4,113.7 176.1,113.7 176.1,118.7 178.5,118.7 
		178.5,120.2 176.1,120.2 176.1,131 174.4,131 	"/>
	<path class="st3" d="M186.6,129.9c1.3,0,2.5-0.5,3.4-1.5c0.9-1,1.4-2.2,1.4-3.6c0-1.4-0.5-2.6-1.4-3.6c-0.9-1-2-1.5-3.4-1.5
		c-1.3,0-2.5,0.5-3.4,1.5c-0.9,1-1.4,2.2-1.4,3.6c0,1.4,0.5,2.6,1.4,3.6C184.1,129.4,185.2,129.9,186.6,129.9 M186.5,131.5
		c-0.9,0-1.7-0.2-2.5-0.5c-0.8-0.3-1.5-0.8-2.2-1.5c-0.6-0.6-1.1-1.3-1.4-2.1c-0.3-0.8-0.5-1.6-0.5-2.5c0-0.9,0.2-1.7,0.5-2.5
		c0.3-0.8,0.8-1.5,1.4-2.1c0.6-0.6,1.3-1.1,2.1-1.4c0.8-0.3,1.6-0.5,2.5-0.5c0.9,0,1.7,0.2,2.5,0.5c0.8,0.3,1.5,0.8,2.1,1.4
		c0.6,0.6,1.1,1.3,1.4,2.1c0.3,0.8,0.5,1.6,0.5,2.5c0,0.9-0.2,1.7-0.5,2.5c-0.3,0.8-0.8,1.5-1.4,2.1c-0.6,0.6-1.4,1.1-2.2,1.5
		C188.3,131.3,187.4,131.5,186.5,131.5"/>
</g>
<g>
	<path class="st3" d="M131,68.4v36.3c13.8,0,25-10.6,25-23.8V68.4H131z"/>
	<path class="st2" d="M69.4,96.9l14.9-21l-7.7-10.5C69.3,55,54.7,53,43.9,60.8l24.4,34.6C68.6,95.9,69,96.4,69.4,96.9"/>
	<path class="st2" d="M170.9,42.4h-29.5l-0.9,1.2l-16.1,22.7h70.1C194.6,53.1,184,42.4,170.9,42.4"/>
	<path class="st2" d="M105,46.6c1.1-1.6,2.4-3,3.8-4.2H92.4c0,5.6,1.9,10.8,5.1,14.8L105,46.6z"/>
	<path class="st3" d="M138.9,42.4L138.9,42.4l-36.1,51.1c-7.4,10.5-21.9,12.9-32.2,5.4l36.1-51.1C114.1,37.3,128.5,34.9,138.9,42.4"
		/>
</g>
</svg>
