<?xml version="1.0" encoding="utf-8"?>
<!-- Generator: Adobe Illustrator 24.3.0, SVG Export Plug-In . SVG Version: 6.00 Build 0)  -->
<svg version="1.1" id="Layer_1" xmlns="http://www.w3.org/2000/svg" xmlns:xlink="http://www.w3.org/1999/xlink" x="0px" y="0px"
	 viewBox="0 0 300 116" style="enable-background:new 0 0 300 116;" width="300px" height="116px" xml:space="preserve">
<style type="text/css">
	.st0{opacity:0.82;}
	.st1{fill:#95CBDE;}
</style>
<g class="st0">
	<g>
		<path class="st1" d="M288.9,48c0.4,6.6-2.8,13-6.9,17.7c-1.3,1.5-2.7,2.9-4.1,4.2c-1.8,1.7-2.8,2.4-4.8,4c-2,1.5-4,2.9-6.1,4.2
			c-0.5,0.3-0.9,0.6-1.4,0.8c-0.3,0.2-0.6,0.3-0.8,0.5c-0.1,0-1,0.6-0.3,0.2c-1.2,0.7-2.3,1.3-3.5,2c-2.5,1.3-5,2.6-7.6,3.8
			c-0.6,0.3-1.1,0.5-1.7,0.8c-0.3,0.2-0.7,0.3-1,0.5c-0.1,0-1.2,0.5-0.4,0.2c-1.4,0.6-2.8,1.2-4.3,1.8c-3,1.2-6,2.3-9,3.4
			c-1.4,0.5-2.9,1-4.3,1.5c-0.4,0.1-0.8,0.3-1.2,0.4c0.9-0.3-0.4,0.1-0.5,0.2c-0.8,0.3-1.6,0.5-2.5,0.8c-6.9,2.1-13.9,3.9-21,5.5
			c-1.2,0.3-2.6,0.6-4.4,0.9c-1.9,0.4-3.8,0.8-5.7,1.1c-3.9,0.7-7.8,1.4-11.7,2c-30,4.5-61.2,5.7-91.4,1.4c-12-1.7-24-4.3-35.4-8.2
			c-9.1-3.1-18.1-7.1-26.1-12.5c-10-6.8-19.8-16.8-20.2-29.6c-0.1-2.4,0.1-3.9,0.7-6.3c0.6-2.3,1.4-4.5,2.6-6.5
			c0.3-0.5,0.6-1.1,0.9-1.6c0.2-0.3,0.3-0.5,0.5-0.7c0.1-0.1,0.2-0.3,0.3-0.4c0.4-0.5-0.1,0.1,0.1-0.2c0.8-1.1,1.6-2.1,2.4-3.1
			c1-1.1,2-2.1,3-3.1c0.5-0.5,1-1,1.6-1.4c0.1-0.1,0.3-0.3,0.4-0.4c0.5-0.5-0.5,0.4,0,0c0.3-0.3,0.7-0.5,1-0.8c1.3-1,2.6-2,4-2.9
			c0.7-0.4,1.4-0.9,2.1-1.3c0.4-0.2,0.8-0.5,1.2-0.7c0.7-0.4-0.7,0.4,0,0c0.3-0.2,0.5-0.3,0.8-0.5c1.6-0.9,3.3-1.8,5-2.6
			c0.9-0.4,1.9-0.9,2.8-1.3c0.3-0.1,1.6-0.7,0.5-0.2c0.6-0.2,1.2-0.5,1.7-0.7c2-0.8,4-1.6,6-2.3c1.1-0.4,2.2-0.8,3.4-1.1
			c0.3-0.1,0.6-0.2,0.9-0.3c-0.1,0-1,0.3-0.3,0.1c0.7-0.2,1.4-0.4,2.1-0.6c2.5-0.7,5-1.4,7.5-2.1c1.2-0.3,2.4-0.6,3.6-0.9
			c0.7-0.2,1.4-0.3,2-0.5c0.2-0.1,0.5-0.1,0.7-0.2c-1.2,0.3,0.3-0.1,0.6-0.1c12.6-2.7,24.6-4.1,37-5.1c15.6-1.2,31.2-1.4,46.9-1.1
			c28.8,0.6,58,2.4,86.1,9c10,2.3,20.1,5.3,29.3,10c6.4,3.3,13,7.7,16.6,14C287.7,42.1,288.6,45,288.9,48c0.1,1.9,8.9,0.3,8.7-2.3
			c-0.5-6.9-4.7-12.7-9.9-16.9c-7.2-5.9-16.1-9.6-24.9-12.5c-11.9-3.9-24.2-6.4-36.5-8.3c-14.8-2.3-29.8-3.6-44.8-4.4
			C150,1.9,118.2,1.9,87.1,6.5c-11.4,1.7-22.7,4-33.6,7.4C44.6,16.7,36,20.1,28,24.7C17.8,30.6,7.3,39.1,4.5,51.1
			C1.8,62.7,7.7,73.5,15.9,81.3c6.5,6.2,14.4,10.8,22.5,14.6c10.4,4.8,21.5,8.2,32.7,10.6c29.8,6.5,60.9,6.9,91.1,4.1
			c30.2-2.8,60.8-8.7,88.9-20.4c10.3-4.3,20.6-9.4,29.5-16.3c6.4-4.9,12.6-11,15.5-18.7c1.1-3,1.6-6.2,1.4-9.4
			C297.4,43.8,288.7,45.4,288.9,48z"/>
	</g>
</g>
</svg>
